<?xml version="1.0" encoding="UTF-8" standalone="no"?>
<!-- Created with Inkscape (http://www.inkscape.org/) -->

<svg
   width="50.860001mm"
   height="50.859997mm"
   viewBox="0 0 50.860002 50.859997"
   version="1.1"
   id="svg1"
   xml:space="preserve"
   inkscape:version="1.3.2 (091e20ef0f, 2023-11-25, custom)"
   sodipodi:docname="flag.svg"
   inkscape:export-filename="flag.png"
   inkscape:export-xdpi="14.982304"
   inkscape:export-ydpi="14.982304"
   xmlns:inkscape="http://www.inkscape.org/namespaces/inkscape"
   xmlns:sodipodi="http://sodipodi.sourceforge.net/DTD/sodipodi-0.dtd"
   xmlns:xlink="http://www.w3.org/1999/xlink"
   xmlns="http://www.w3.org/2000/svg"
   xmlns:svg="http://www.w3.org/2000/svg"><sodipodi:namedview
     id="namedview1"
     pagecolor="#ffffff"
     bordercolor="#666666"
     borderopacity="1.0"
     inkscape:showpageshadow="2"
     inkscape:pageopacity="0.0"
     inkscape:pagecheckerboard="0"
     inkscape:deskcolor="#d1d1d1"
     inkscape:document-units="mm"
     inkscape:zoom="0.71914735"
     inkscape:cx="71.612584"
     inkscape:cy="298.26989"
     inkscape:window-width="1352"
     inkscape:window-height="685"
     inkscape:window-x="0"
     inkscape:window-y="0"
     inkscape:window-maximized="0"
     inkscape:current-layer="layer1"
     showgrid="false"
     showguides="true" /><defs
     id="defs1"><linearGradient
       id="linearGradient12"
       inkscape:collect="always"><stop
         style="stop-color:#f65959;stop-opacity:1;"
         offset="0"
         id="stop12" /><stop
         style="stop-color:#ff2626;stop-opacity:1;"
         offset="1"
         id="stop13" /></linearGradient><inkscape:perspective
       sodipodi:type="inkscape:persp3d"
       inkscape:vp_x="0 : 24.189408 : 1"
       inkscape:vp_y="0 : 1000 : 0"
       inkscape:vp_z="50.863062 : 24.189408 : 1"
       inkscape:persp3d-origin="25.431532 : 15.299211 : 1"
       id="perspective32" /><clipPath
       clipPathUnits="userSpaceOnUse"
       id="clipPath24"><path
         style="fill:none;stroke:#000000;stroke-width:0.264583px;stroke-linecap:butt;stroke-linejoin:miter;stroke-opacity:1"
         d="m 150.34847,237.57949 2.37842,3.41101 27.16138,-5.69854 -3.87736,-9.93934 -23.25725,5.08437 z"
         id="path25" /></clipPath><clipPath
       clipPathUnits="userSpaceOnUse"
       id="clipPath30"><path
         style="fill:none;stroke:#000000;stroke-width:0.264583px;stroke-linecap:butt;stroke-linejoin:miter;stroke-opacity:1"
         d="m 149.27308,236.09336 4.21306,5.54509 26.40213,-3.59315 13.88536,-1.91435 -0.4006,23.43017 -38.03271,6.07414 -16.10194,-15.75017 z"
         id="path30"
         sodipodi:nodetypes="cccccccc" /></clipPath><clipPath
       clipPathUnits="userSpaceOnUse"
       id="clipPath24-7"><path
         style="fill:none;stroke:#000000;stroke-width:0.264583px;stroke-linecap:butt;stroke-linejoin:miter;stroke-opacity:1"
         d="m 150.34847,237.57949 2.37842,3.41101 27.16138,-5.69854 -3.87736,-9.93934 -23.25725,5.08437 z"
         id="path25-8" /></clipPath><clipPath
       clipPathUnits="userSpaceOnUse"
       id="clipPath24-5"><path
         style="fill:none;stroke:#000000;stroke-width:0.264583px;stroke-linecap:butt;stroke-linejoin:miter;stroke-opacity:1"
         d="m 150.34847,237.57949 2.37842,3.41101 27.16138,-5.69854 -3.87736,-9.93934 -23.25725,5.08437 z"
         id="path25-6" /></clipPath><linearGradient
       inkscape:collect="always"
       xlink:href="#linearGradient12"
       id="linearGradient13"
       x1="922.03973"
       y1="6.8658423"
       x2="939.28833"
       y2="16.851294"
       gradientUnits="userSpaceOnUse" /></defs><g
     inkscape:label="Layer 1"
     inkscape:groupmode="layer"
     id="layer1"
     transform="translate(-900.26158,0.21199343)"><g
       id="g8"
       transform="matrix(1.0376337,0,0,1.0376337,-37.578898,-1.8318633)"><path
         style="font-variation-settings:normal;fill:#ffc95c;fill-opacity:1;stroke:#000000;stroke-width:2.72949;stroke-linecap:square;stroke-linejoin:miter;stroke-miterlimit:4;stroke-dasharray:none;stroke-dashoffset:0;stroke-opacity:1;stop-color:#000000"
         d="m 907.47562,15.557114 c 1.29246,-1.443327 2.56458,-0.802873 11.12116,0.494214 4.57333,-2.015663 8.79279,-1.580538 12.61352,-0.158912 9.17154,-1.218242 10.14108,-1.449171 11.41174,-0.24552 1.27066,1.203651 0.79399,2.612728 -1.69803,9.911872 0.49665,1.702401 0.88326,2.700691 1.00679,4.161061 0.22457,2.736108 0.31437,5.469381 -0.0204,9.596851 -0.77482,4.266088 -4.85477,7.878749 -7.9726,7.994662 -2.24171,0.0012 -7.77578,-0.0217 -16.13207,-0.0012 -9.52951,-0.693233 -13.73835,-10.354728 -9.46688,-21.856973 -0.85653,-2.916671 -3.05551,-7.57114 -0.86322,-9.895974 z"
         id="path2"
         sodipodi:nodetypes="scczccccccs" /><path
         style="font-variation-settings:normal;vector-effect:none;fill:none;fill-opacity:1;stroke:#000000;stroke-width:1.64153;stroke-linecap:round;stroke-linejoin:miter;stroke-miterlimit:4;stroke-dasharray:none;stroke-dashoffset:0;stroke-opacity:1;-inkscape-stroke:none;stop-color:#000000"
         d="m 914.18408,25.591342 c 1.0602,-1.239054 2.2244,-1.963972 3.92907,-2.017653"
         id="path3"
         sodipodi:nodetypes="cc" /><path
         style="font-variation-settings:normal;vector-effect:none;fill:none;fill-opacity:1;stroke:#000000;stroke-width:1.64153;stroke-linecap:round;stroke-linejoin:miter;stroke-miterlimit:4;stroke-dasharray:none;stroke-dashoffset:0;stroke-opacity:1;-inkscape-stroke:none;stop-color:#000000"
         d="m 926.39116,24.186471 c 1.17201,1.614124 2.387,2.270718 4.77054,2.182964"
         id="path4"
         sodipodi:nodetypes="cc" /><path
         style="font-variation-settings:normal;vector-effect:none;fill:#000000;fill-opacity:1;stroke:none;stroke-width:0.169326px;stroke-linecap:butt;stroke-linejoin:miter;stroke-miterlimit:4;stroke-dasharray:none;stroke-dashoffset:0;stroke-opacity:1;-inkscape-stroke:none;stop-color:#000000"
         d="m 913.5367,29.207835 c 0,0 -0.17612,3.482613 2.6284,3.507777 2.80452,0.02515 3.08263,-2.552486 2.67544,-4.965158 -0.76756,0.161056 -5.30384,1.457381 -5.30384,1.457381 z"
         id="path5"
         sodipodi:nodetypes="cscc" /><path
         style="fill:#000000;fill-opacity:1;stroke:none;stroke-width:0.169326px;stroke-linecap:butt;stroke-linejoin:miter;stroke-opacity:1"
         d="m 930.93563,30.745982 c 0,0 -0.15898,1.974737 -2.47435,1.96963 -2.07044,-0.0044 -3.08852,-1.588513 -2.68134,-4.001184 0.76755,0.161057 5.15569,2.031554 5.15569,2.031554 z"
         id="path6"
         sodipodi:nodetypes="cscc" /><path
         style="fill:none;stroke:#1a0805;stroke-width:1.64153;stroke-linecap:round;stroke-linejoin:miter;stroke-dasharray:none;stroke-opacity:0.870848"
         d="m 916.63588,36.966784 c 0,0 0.25074,2.569356 1.94803,2.657704 1.69727,0.08835 2.11131,-1.936395 3.57516,-1.940651 1.54296,-0.0044 1.62033,2.665973 3.98371,2.629687 2.94362,-0.002 3.42776,-3.394462 3.42776,-3.394462"
         id="path7"
         sodipodi:nodetypes="csscc" /><path
         style="font-variation-settings:normal;fill:#1a0805;fill-opacity:0.870588;stroke:none;stroke-width:2.22663;stroke-linecap:round;stroke-linejoin:miter;stroke-miterlimit:4;stroke-dasharray:none;stroke-dashoffset:0;stroke-opacity:0.870848;paint-order:markers stroke fill"
         id="path8"
         sodipodi:type="arc"
         sodipodi:cx="917.07758"
         sodipodi:cy="47.280308"
         sodipodi:rx="0.98383051"
         sodipodi:ry="0.98383099"
         sodipodi:start="0"
         sodipodi:end="6.2741096"
         sodipodi:open="true"
         sodipodi:arc-type="chord"
         d="m 918.06141,47.280308 a 0.98383051,0.98383099 0 0 1 -0.9816,0.983828 0.98383051,0.98383099 0 0 1 -0.98605,-0.979364 0.98383051,0.98383099 0 0 1 0.97712,-0.988272 0.98383051,0.98383099 0 0 1 0.99049,0.974879 z" /></g><path
       style="fill:url(#linearGradient13);stroke:#000000;stroke-width:1.7;stroke-linecap:butt;stroke-linejoin:round;stroke-dasharray:none;stroke-opacity:1"
       d="M 942.49283,5.0330666 C 936.06807,6.8418036 927.66208,3.4855075 912.78821,8.0220608 923.8355,12.344331 929.96786,19.01083 936.69502,22.784019 Z"
       id="path12"
       sodipodi:nodetypes="cccc" /><g
       id="path9"
       style="stroke:#000000;stroke-width:1.703;stroke-dasharray:none;stroke-opacity:1"
       transform="translate(-1.2603882,-0.61382719)"><path
         style="color:#000000;fill:#d2d2d2;stroke:#000000;stroke-width:1.703;stroke-linecap:round;stroke-dasharray:none;stroke-opacity:1"
         d="m 931.50644,47.25998 13.711,-42.5748923"
         id="path10" /><path
         style="color:#000000;fill:#e4e4e4;stroke:#000000;stroke-width:1.703;stroke-linecap:round;stroke-dasharray:none;stroke-opacity:1"
         d="m 947.55802,2.4173585 c -1.80465,-0.58169 -3.73911,0.410028 -4.32031,2.2148438 L 930.15335,45.366999 c -0.58153,1.805228 0.4112,3.739948 2.2168,4.320313 1.80406,0.580421 3.73715,-0.411041 4.31836,-2.214844 L 949.77286,6.7357179 c 0.58042,-1.8040565 -0.41104,-3.7371443 -2.21484,-4.3183594 z"
         id="path11"
         sodipodi:nodetypes="ccccccc" /></g></g></svg>
